<?xml version="1.0" encoding="UTF-8" standalone="no"?>
<!DOCTYPE svg PUBLIC "-//W3C//DTD SVG 1.1//EN"
 "http://www.w3.org/Graphics/SVG/1.1/DTD/svg11.dtd">
<!-- Generated by graphviz version 2.40.1 (20161225.0304)
 -->
<!-- Title: %3 Pages: 1 -->
<svg width="663pt" height="805pt"
 viewBox="0.00 0.00 663.00 804.94" xmlns="http://www.w3.org/2000/svg" xmlns:xlink="http://www.w3.org/1999/xlink">
<g id="graph0" class="graph" transform="scale(1 1) rotate(0) translate(4 800.9375)">
<title>%3</title>
<polygon fill="#ffffff" stroke="transparent" points="-4,4 -4,-800.9375 659,-800.9375 659,4 -4,4"/>
<text text-anchor="middle" x="65" y="-783.3375" font-family="Osaka-Mono" font-size="12.00" fill="#333333">TodoCloudController</text>
<!-- addTodoItemSucceeded -->
<g id="node1" class="node">
<title>addTodoItemSucceeded</title>
<polygon fill="#f9f9f9" stroke="#40c5ee" points="67,-370.1875 67,-407.125 183,-407.125 183,-370.1875 67,-370.1875"/>
<text text-anchor="middle" x="125" y="-395.125" font-family="Osaka-Mono" font-size="10.00" fill="#333333">addTodoItemSucceeded</text>
<polyline fill="none" stroke="#40c5ee" points="67,-388.6563 183,-388.6563 "/>
<text text-anchor="middle" x="125" y="-376.6563" font-family="Osaka-Mono" font-size="10.00" fill="#333333">アイテム追加成功</text>
</g>
<!-- operating -->
<g id="node16" class="node">
<title>operating</title>
<polygon fill="#f9f9f9" stroke="#bbbbbb" points="296.5,-296.25 296.5,-333.1875 357.5,-333.1875 357.5,-296.25 296.5,-296.25"/>
<text text-anchor="middle" x="327" y="-321.1875" font-family="Osaka-Mono" font-size="10.00" fill="#333333">operating</text>
<polyline fill="none" stroke="#bbbbbb" points="296.5,-314.7188 357.5,-314.7188 "/>
<text text-anchor="middle" x="327" y="-302.7188" font-family="Osaka-Mono" font-size="10.00" fill="#333333">操作中</text>
</g>
<!-- addTodoItemSucceeded&#45;&gt;operating -->
<g id="edge1" class="edge">
<title>addTodoItemSucceeded&#45;&gt;operating</title>
<path fill="none" stroke="#aaaaaa" stroke-dasharray="5,2" d="M175.7124,-370.0941C210.1336,-357.495 255.0169,-341.0665 286.9348,-329.3837"/>
<polygon fill="#aaaaaa" stroke="#aaaaaa" points="288.2105,-332.6439 296.3981,-325.9199 285.8044,-326.0704 288.2105,-332.6439"/>
</g>
<!-- removingTodoItem -->
<g id="node2" class="node">
<title>removingTodoItem</title>
<polygon fill="#f9f9f9" stroke="#bbbbbb" points="221,-222.3125 221,-259.25 337,-259.25 337,-222.3125 221,-222.3125"/>
<text text-anchor="middle" x="279" y="-247.25" font-family="Osaka-Mono" font-size="10.00" fill="#333333">removingTodoItem</text>
<polyline fill="none" stroke="#bbbbbb" points="221,-240.7813 337,-240.7813 "/>
<text text-anchor="middle" x="279" y="-228.7813" font-family="Osaka-Mono" font-size="10.00" fill="#333333">アイテム削除の通信中</text>
</g>
<!-- connectionFailed -->
<g id="node7" class="node">
<title>connectionFailed</title>
<polygon fill="#f9f9f9" stroke="#40c5ee" points="471,-.5 471,-37.4375 567,-37.4375 567,-.5 471,-.5"/>
<text text-anchor="middle" x="519" y="-25.4375" font-family="Osaka-Mono" font-size="10.00" fill="#333333">connectionFailed</text>
<polyline fill="none" stroke="#40c5ee" points="471,-18.9688 567,-18.9688 "/>
<text text-anchor="middle" x="519" y="-6.9688" font-family="Osaka-Mono" font-size="10.00" fill="#333333">通信失敗</text>
</g>
<!-- removingTodoItem&#45;&gt;connectionFailed -->
<g id="edge3" class="edge">
<title>removingTodoItem&#45;&gt;connectionFailed</title>
<path fill="none" stroke="#99def3" d="M293.8889,-222.1743C309.7175,-202.823 335.8828,-172.0364 361,-147.875 401.5176,-108.8992 452.5684,-68.6734 485.4915,-43.7476"/>
<polygon fill="#99def3" stroke="#99def3" points="487.98,-46.2551 493.863,-37.4437 483.7692,-40.6632 487.98,-46.2551"/>
</g>
<!-- removeTodoItemSucceeded -->
<g id="node13" class="node">
<title>removeTodoItemSucceeded</title>
<polygon fill="#f9f9f9" stroke="#40c5ee" points="181.5,-148.375 181.5,-185.3125 312.5,-185.3125 312.5,-148.375 181.5,-148.375"/>
<text text-anchor="middle" x="247" y="-173.3125" font-family="Osaka-Mono" font-size="10.00" fill="#333333">removeTodoItemSucceeded</text>
<polyline fill="none" stroke="#40c5ee" points="181.5,-166.8438 312.5,-166.8438 "/>
<text text-anchor="middle" x="247" y="-154.8438" font-family="Osaka-Mono" font-size="10.00" fill="#333333">アイテム削除成功</text>
</g>
<!-- removingTodoItem&#45;&gt;removeTodoItemSucceeded -->
<g id="edge2" class="edge">
<title>removingTodoItem&#45;&gt;removeTodoItemSucceeded</title>
<path fill="none" stroke="#99def3" d="M270.925,-222.1237C267.3626,-213.8926 263.099,-204.0412 259.1642,-194.9497"/>
<polygon fill="#99def3" stroke="#99def3" points="262.2564,-193.2825 255.0724,-185.4953 255.8323,-196.0629 262.2564,-193.2825"/>
</g>
<!-- loadingHistoryItems -->
<g id="node3" class="node">
<title>loadingHistoryItems</title>
<polygon fill="#f9f9f9" stroke="#bbbbbb" points="486.5,-444.125 486.5,-481.0625 597.5,-481.0625 597.5,-444.125 486.5,-444.125"/>
<text text-anchor="middle" x="542" y="-469.0625" font-family="Osaka-Mono" font-size="10.00" fill="#333333">loadingHistoryItems</text>
<polyline fill="none" stroke="#bbbbbb" points="486.5,-462.5938 597.5,-462.5938 "/>
<text text-anchor="middle" x="542" y="-450.5938" font-family="Osaka-Mono" font-size="10.00" fill="#333333">履歴取得中</text>
</g>
<!-- historyItemsLoadSucceeded -->
<g id="node5" class="node">
<title>historyItemsLoadSucceeded</title>
<polygon fill="#f9f9f9" stroke="#40c5ee" points="256.5,-370.1875 256.5,-407.125 397.5,-407.125 397.5,-370.1875 256.5,-370.1875"/>
<text text-anchor="middle" x="327" y="-395.125" font-family="Osaka-Mono" font-size="10.00" fill="#333333">historyItemsLoadSucceeded</text>
<polyline fill="none" stroke="#40c5ee" points="256.5,-388.6563 397.5,-388.6563 "/>
<text text-anchor="middle" x="327" y="-376.6563" font-family="Osaka-Mono" font-size="10.00" fill="#333333">履歴取得成功</text>
</g>
<!-- loadingHistoryItems&#45;&gt;historyItemsLoadSucceeded -->
<g id="edge4" class="edge">
<title>loadingHistoryItems&#45;&gt;historyItemsLoadSucceeded</title>
<path fill="none" stroke="#99def3" d="M488.0239,-444.0316C458.5044,-433.88 421.7556,-421.2422 390.8211,-410.604"/>
<polygon fill="#99def3" stroke="#99def3" points="391.593,-407.1683 380.9983,-407.226 389.3165,-413.7879 391.593,-407.1683"/>
</g>
<!-- loadingHistoryItems&#45;&gt;connectionFailed -->
<g id="edge5" class="edge">
<title>loadingHistoryItems&#45;&gt;connectionFailed</title>
<path fill="none" stroke="#99def3" d="M553.5002,-443.7563C569.0879,-416.3821 595,-363.5354 595,-314.7188 595,-314.7188 595,-314.7188 595,-166.8438 595,-120.0803 564.5627,-73.2822 542.2122,-45.2216"/>
<polygon fill="#99def3" stroke="#99def3" points="544.9121,-42.9943 535.8669,-37.4776 539.4976,-47.4309 544.9121,-42.9943"/>
</g>
<!-- todoItemsLoadSucceeded -->
<g id="node4" class="node">
<title>todoItemsLoadSucceeded</title>
<polygon fill="#f9f9f9" stroke="#40c5ee" points="479,-518.0625 479,-555 605,-555 605,-518.0625 479,-518.0625"/>
<text text-anchor="middle" x="542" y="-543" font-family="Osaka-Mono" font-size="10.00" fill="#333333">todoItemsLoadSucceeded</text>
<polyline fill="none" stroke="#40c5ee" points="479,-536.5313 605,-536.5313 "/>
<text text-anchor="middle" x="542" y="-524.5313" font-family="Osaka-Mono" font-size="10.00" fill="#333333">アイテムの取得成功</text>
</g>
<!-- todoItemsLoadSucceeded&#45;&gt;loadingHistoryItems -->
<g id="edge6" class="edge">
<title>todoItemsLoadSucceeded&#45;&gt;loadingHistoryItems</title>
<path fill="none" stroke="#aaaaaa" stroke-dasharray="5,2" d="M542,-517.8737C542,-509.8177 542,-500.2096 542,-491.281"/>
<polygon fill="#aaaaaa" stroke="#aaaaaa" points="545.5001,-491.2453 542,-481.2453 538.5001,-491.2454 545.5001,-491.2453"/>
</g>
<!-- historyItemsLoadSucceeded&#45;&gt;operating -->
<g id="edge7" class="edge">
<title>historyItemsLoadSucceeded&#45;&gt;operating</title>
<path fill="none" stroke="#aaaaaa" stroke-dasharray="5,2" d="M321.0476,-369.9987C320.2831,-361.9427 320.0682,-352.3346 320.4028,-343.406"/>
<polygon fill="#aaaaaa" stroke="#aaaaaa" points="323.8992,-343.5744 321.0482,-333.3703 316.9136,-343.1251 323.8992,-343.5744"/>
</g>
<!-- historyItemsLoadSucceeded&#45;&gt;operating -->
<g id="edge8" class="edge">
<title>historyItemsLoadSucceeded&#45;&gt;operating</title>
<path fill="none" stroke="#aaaaaa" stroke-dasharray="5,2" d="M332.9524,-369.9987C333.7169,-361.9427 333.9318,-352.3346 333.5972,-343.406"/>
<polygon fill="#aaaaaa" stroke="#aaaaaa" points="337.0864,-343.1251 332.9518,-333.3703 330.1008,-343.5744 337.0864,-343.1251"/>
</g>
<!-- addHistoryItemSucceeded -->
<g id="node6" class="node">
<title>addHistoryItemSucceeded</title>
<polygon fill="#f9f9f9" stroke="#40c5ee" points="115.5,-.5 115.5,-37.4375 246.5,-37.4375 246.5,-.5 115.5,-.5"/>
<text text-anchor="middle" x="181" y="-25.4375" font-family="Osaka-Mono" font-size="10.00" fill="#333333">addHistoryItemSucceeded</text>
<polyline fill="none" stroke="#40c5ee" points="115.5,-18.9688 246.5,-18.9688 "/>
<text text-anchor="middle" x="181" y="-6.9688" font-family="Osaka-Mono" font-size="10.00" fill="#333333">履歴追加成功</text>
</g>
<!-- addHistoryItemSucceeded&#45;&gt;operating -->
<g id="edge9" class="edge">
<title>addHistoryItemSucceeded&#45;&gt;operating</title>
<path fill="none" stroke="#aaaaaa" stroke-dasharray="5,2" d="M176.6774,-37.5749C170.1888,-68.7576 160.0028,-133.3139 173,-185.8125 181.9283,-221.8761 185.2156,-234.0032 212,-259.75 233.0323,-279.9675 262.901,-293.9398 286.9269,-302.7374"/>
<polygon fill="#aaaaaa" stroke="#aaaaaa" points="285.8917,-306.0832 296.4865,-306.0819 288.2033,-299.4759 285.8917,-306.0832"/>
</g>
<!-- connectionFailed&#45;&gt;operating -->
<g id="edge10" class="edge">
<title>connectionFailed&#45;&gt;operating</title>
<path fill="none" stroke="#aaaaaa" stroke-dasharray="5,2" d="M525.997,-37.6087C541.3059,-81.936 572.263,-194.7791 518,-259.75 498.8069,-282.7305 417.8607,-299.815 367.7074,-308.4365"/>
<polygon fill="#aaaaaa" stroke="#aaaaaa" points="367.0933,-304.9906 357.8104,-310.0971 368.2517,-311.8941 367.0933,-304.9906"/>
</g>
<!-- editingTodoItem -->
<g id="node8" class="node">
<title>editingTodoItem</title>
<polygon fill="#f9f9f9" stroke="#bbbbbb" points="393,-222.3125 393,-259.25 509,-259.25 509,-222.3125 393,-222.3125"/>
<text text-anchor="middle" x="451" y="-247.25" font-family="Osaka-Mono" font-size="10.00" fill="#333333">editingTodoItem</text>
<polyline fill="none" stroke="#bbbbbb" points="393,-240.7813 509,-240.7813 "/>
<text text-anchor="middle" x="451" y="-228.7813" font-family="Osaka-Mono" font-size="10.00" fill="#333333">アイテム更新の通信中</text>
</g>
<!-- editingTodoItem&#45;&gt;connectionFailed -->
<g id="edge12" class="edge">
<title>editingTodoItem&#45;&gt;connectionFailed</title>
<path fill="none" stroke="#99def3" d="M472.9941,-222.0868C482.9467,-212.3372 493.8388,-199.5825 500,-185.8125 520.1986,-140.6697 521.9709,-82.0916 520.868,-47.7072"/>
<polygon fill="#99def3" stroke="#99def3" points="524.3531,-47.2824 520.4286,-37.4412 517.3595,-47.5818 524.3531,-47.2824"/>
</g>
<!-- editTodoItemSucceeded -->
<g id="node9" class="node">
<title>editTodoItemSucceeded</title>
<polygon fill="#f9f9f9" stroke="#40c5ee" points="369.5,-148.375 369.5,-185.3125 490.5,-185.3125 490.5,-148.375 369.5,-148.375"/>
<text text-anchor="middle" x="430" y="-173.3125" font-family="Osaka-Mono" font-size="10.00" fill="#333333">editTodoItemSucceeded</text>
<polyline fill="none" stroke="#40c5ee" points="369.5,-166.8438 490.5,-166.8438 "/>
<text text-anchor="middle" x="430" y="-154.8438" font-family="Osaka-Mono" font-size="10.00" fill="#333333">アイテム更新成功</text>
</g>
<!-- editingTodoItem&#45;&gt;editTodoItemSucceeded -->
<g id="edge11" class="edge">
<title>editingTodoItem&#45;&gt;editTodoItemSucceeded</title>
<path fill="none" stroke="#99def3" d="M445.7008,-222.1237C443.3878,-213.9801 440.6244,-204.2506 438.0652,-195.2401"/>
<polygon fill="#99def3" stroke="#99def3" points="441.3966,-194.1586 435.2975,-185.4953 434.6629,-196.0711 441.3966,-194.1586"/>
</g>
<!-- editTodoItemSucceeded&#45;&gt;operating -->
<g id="edge13" class="edge">
<title>editTodoItemSucceeded&#45;&gt;operating</title>
<path fill="none" stroke="#aaaaaa" stroke-dasharray="5,2" d="M413.1088,-185.6248C404.0842,-195.9978 393.0102,-209.2859 384,-221.8125 368.7117,-243.0674 353.2991,-268.4854 342.3623,-287.3579"/>
<polygon fill="#aaaaaa" stroke="#aaaaaa" points="339.3159,-285.6347 337.3731,-296.0499 345.3868,-289.1195 339.3159,-285.6347"/>
</g>
<!-- begin -->
<g id="node10" class="node">
<title>begin</title>
<polygon fill="#f9f9f9" stroke="#00d54b" points="560,-739.875 560,-775.875 614,-775.875 614,-739.875 560,-739.875"/>
<text text-anchor="middle" x="587" y="-755.375" font-family="Osaka-Mono" font-size="10.00" fill="#333333">begin</text>
</g>
<!-- firstSetup -->
<g id="node14" class="node">
<title>firstSetup</title>
<polygon fill="#f9f9f9" stroke="#40c5ee" points="539,-665.9375 539,-702.875 635,-702.875 635,-665.9375 539,-665.9375"/>
<text text-anchor="middle" x="587" y="-690.875" font-family="Osaka-Mono" font-size="10.00" fill="#333333">firstSetup</text>
<polyline fill="none" stroke="#40c5ee" points="539,-684.4063 635,-684.4063 "/>
<text text-anchor="middle" x="587" y="-672.4063" font-family="Osaka-Mono" font-size="10.00" fill="#333333">初期セットアップ</text>
</g>
<!-- begin&#45;&gt;firstSetup -->
<g id="edge14" class="edge">
<title>begin&#45;&gt;firstSetup</title>
<path fill="none" stroke="#99def3" d="M587,-739.7142C587,-731.7123 587,-722.1148 587,-713.1778"/>
<polygon fill="#99def3" stroke="#99def3" points="590.5001,-713.1252 587,-703.1252 583.5001,-713.1252 590.5001,-713.1252"/>
</g>
<!-- addingTodoItem -->
<g id="node11" class="node">
<title>addingTodoItem</title>
<polygon fill="#f9f9f9" stroke="#bbbbbb" points="0,-222.3125 0,-259.25 116,-259.25 116,-222.3125 0,-222.3125"/>
<text text-anchor="middle" x="58" y="-247.25" font-family="Osaka-Mono" font-size="10.00" fill="#333333">addingTodoItem</text>
<polyline fill="none" stroke="#bbbbbb" points="0,-240.7813 116,-240.7813 "/>
<text text-anchor="middle" x="58" y="-228.7813" font-family="Osaka-Mono" font-size="10.00" fill="#333333">アイテム追加の通信中</text>
</g>
<!-- addingTodoItem&#45;&gt;addTodoItemSucceeded -->
<g id="edge15" class="edge">
<title>addingTodoItem&#45;&gt;addTodoItemSucceeded</title>
<path fill="none" stroke="#99def3" d="M66.4167,-259.3577C77.9587,-284.8318 98.7967,-330.8231 112.2566,-360.5305"/>
<polygon fill="#99def3" stroke="#99def3" points="109.1993,-362.2636 116.5144,-369.9278 115.5754,-359.3746 109.1993,-362.2636"/>
</g>
<!-- addingTodoItem&#45;&gt;connectionFailed -->
<g id="edge16" class="edge">
<title>addingTodoItem&#45;&gt;connectionFailed</title>
<path fill="none" stroke="#99def3" d="M66.5433,-222.2997C83.9119,-186.9994 126.9367,-110.2694 188,-73.9375 233.0675,-47.1229 378.4725,-30.836 460.7838,-23.5322"/>
<polygon fill="#99def3" stroke="#99def3" points="461.3273,-26.9983 470.9861,-22.6443 460.7203,-20.0246 461.3273,-26.9983"/>
</g>
<!-- addingHistoryItem -->
<g id="node12" class="node">
<title>addingHistoryItem</title>
<polygon fill="#f9f9f9" stroke="#bbbbbb" points="196.5,-74.4375 196.5,-111.375 297.5,-111.375 297.5,-74.4375 196.5,-74.4375"/>
<text text-anchor="middle" x="247" y="-99.375" font-family="Osaka-Mono" font-size="10.00" fill="#333333">addingHistoryItem</text>
<polyline fill="none" stroke="#bbbbbb" points="196.5,-92.9063 297.5,-92.9063 "/>
<text text-anchor="middle" x="247" y="-80.9063" font-family="Osaka-Mono" font-size="10.00" fill="#333333">履歴追加の通信中</text>
</g>
<!-- addingHistoryItem&#45;&gt;addHistoryItemSucceeded -->
<g id="edge17" class="edge">
<title>addingHistoryItem&#45;&gt;addHistoryItemSucceeded</title>
<path fill="none" stroke="#99def3" d="M230.3454,-74.2487C222.5289,-65.4922 213.0756,-54.9019 204.5435,-45.3437"/>
<polygon fill="#99def3" stroke="#99def3" points="206.9196,-42.7498 197.6493,-37.6203 201.6975,-47.4113 206.9196,-42.7498"/>
</g>
<!-- addingHistoryItem&#45;&gt;connectionFailed -->
<g id="edge18" class="edge">
<title>addingHistoryItem&#45;&gt;connectionFailed</title>
<path fill="none" stroke="#99def3" d="M297.5237,-79.1725C343.8052,-66.5918 412.2961,-47.974 460.8399,-34.7784"/>
<polygon fill="#99def3" stroke="#99def3" points="461.8434,-38.1326 470.5752,-32.132 460.0072,-31.3778 461.8434,-38.1326"/>
</g>
<!-- removeTodoItemSucceeded&#45;&gt;addingHistoryItem -->
<g id="edge19" class="edge">
<title>removeTodoItemSucceeded&#45;&gt;addingHistoryItem</title>
<path fill="none" stroke="#aaaaaa" stroke-dasharray="5,2" d="M247,-148.1862C247,-140.1302 247,-130.5221 247,-121.5935"/>
<polygon fill="#aaaaaa" stroke="#aaaaaa" points="250.5001,-121.5578 247,-111.5578 243.5001,-121.5579 250.5001,-121.5578"/>
</g>
<!-- loadingTodoItems -->
<g id="node15" class="node">
<title>loadingTodoItems</title>
<polygon fill="#f9f9f9" stroke="#bbbbbb" points="519,-592 519,-628.9375 655,-628.9375 655,-592 519,-592"/>
<text text-anchor="middle" x="587" y="-616.9375" font-family="Osaka-Mono" font-size="10.00" fill="#333333">loadingTodoItems</text>
<polyline fill="none" stroke="#bbbbbb" points="519,-610.4688 655,-610.4688 "/>
<text text-anchor="middle" x="587" y="-598.4688" font-family="Osaka-Mono" font-size="10.00" fill="#333333">アイテム取得の通信を待つ</text>
</g>
<!-- firstSetup&#45;&gt;loadingTodoItems -->
<g id="edge20" class="edge">
<title>firstSetup&#45;&gt;loadingTodoItems</title>
<path fill="none" stroke="#aaaaaa" stroke-dasharray="5,2" d="M587,-665.7487C587,-657.6927 587,-648.0846 587,-639.156"/>
<polygon fill="#aaaaaa" stroke="#aaaaaa" points="590.5001,-639.1203 587,-629.1203 583.5001,-639.1204 590.5001,-639.1203"/>
</g>
<!-- loadingTodoItems&#45;&gt;todoItemsLoadSucceeded -->
<g id="edge21" class="edge">
<title>loadingTodoItems&#45;&gt;todoItemsLoadSucceeded</title>
<path fill="none" stroke="#99def3" d="M575.6446,-591.8112C570.4751,-583.3174 564.2554,-573.0982 558.5776,-563.7691"/>
<polygon fill="#99def3" stroke="#99def3" points="561.5406,-561.9054 553.3518,-555.1828 555.561,-565.5448 561.5406,-561.9054"/>
</g>
<!-- loadingTodoItems&#45;&gt;connectionFailed -->
<g id="edge22" class="edge">
<title>loadingTodoItems&#45;&gt;connectionFailed</title>
<path fill="none" stroke="#99def3" d="M597.5998,-591.8983C603.1661,-581.4772 609.7041,-568.0769 614,-555.5 627.6233,-515.6162 633,-504.74 633,-462.5938 633,-462.5938 633,-462.5938 633,-166.8438 633,-114.9958 588.4992,-70.2115 555.1046,-43.9035"/>
<polygon fill="#99def3" stroke="#99def3" points="556.9573,-40.9142 546.8875,-37.62 552.7052,-46.4748 556.9573,-40.9142"/>
</g>
<!-- operating&#45;&gt;removingTodoItem -->
<g id="edge24" class="edge">
<title>operating&#45;&gt;removingTodoItem</title>
<path fill="none" stroke="#aaaaaa" stroke-dasharray="5,2" d="M314.8876,-296.0612C309.3734,-287.5674 302.7391,-277.3482 296.6827,-268.0191"/>
<polygon fill="#aaaaaa" stroke="#aaaaaa" points="299.4894,-265.9145 291.1086,-259.4328 293.6181,-269.7262 299.4894,-265.9145"/>
</g>
<!-- operating&#45;&gt;editingTodoItem -->
<g id="edge25" class="edge">
<title>operating&#45;&gt;editingTodoItem</title>
<path fill="none" stroke="#aaaaaa" stroke-dasharray="5,2" d="M357.6517,-296.4421C373.7749,-286.8282 393.7365,-274.9258 411.0571,-264.598"/>
<polygon fill="#aaaaaa" stroke="#aaaaaa" points="413.0431,-267.4888 419.8396,-259.3613 409.4581,-261.4765 413.0431,-267.4888"/>
</g>
<!-- operating&#45;&gt;addingTodoItem -->
<g id="edge23" class="edge">
<title>operating&#45;&gt;addingTodoItem</title>
<path fill="none" stroke="#aaaaaa" stroke-dasharray="5,2" d="M296.4042,-306.3092C255.1594,-294.9726 180.5845,-274.4749 125.7899,-259.414"/>
<polygon fill="#aaaaaa" stroke="#aaaaaa" points="126.7155,-256.0387 116.1454,-256.7631 124.8602,-262.7884 126.7155,-256.0387"/>
</g>
</g>
</svg>
