<?xml version="1.0" encoding="UTF-8" standalone="no"?>
<!DOCTYPE svg PUBLIC "-//W3C//DTD SVG 1.1//EN"
 "http://www.w3.org/Graphics/SVG/1.1/DTD/svg11.dtd">
<!-- Generated by graphviz version 2.40.1 (20161225.0304)
 -->
<!-- Title: %3 Pages: 1 -->
<svg width="825pt" height="805pt"
 viewBox="0.00 0.00 824.58 804.94" xmlns="http://www.w3.org/2000/svg" xmlns:xlink="http://www.w3.org/1999/xlink">
<g id="graph0" class="graph" transform="scale(1 1) rotate(0) translate(4 800.9375)">
<title>%3</title>
<polygon fill="#ffffff" stroke="transparent" points="-4,4 -4,-800.9375 820.5807,-800.9375 820.5807,4 -4,4"/>
<text text-anchor="middle" x="65" y="-783.3375" font-family="Osaka-Mono" font-size="12.00" fill="#333333">TodoCloudController</text>
<!-- historyItemsLoadSucceeded -->
<g id="node1" class="node">
<title>historyItemsLoadSucceeded</title>
<polygon fill="#f9f9f9" stroke="#40c5ee" points="286.3633,-370.1875 286.3633,-407.125 427.3633,-407.125 427.3633,-370.1875 286.3633,-370.1875"/>
<text text-anchor="middle" x="356.8633" y="-395.125" font-family="Osaka-Mono" font-size="10.00" fill="#333333">historyItemsLoadSucceeded</text>
<polyline fill="none" stroke="#40c5ee" points="286.3633,-388.6563 427.3633,-388.6563 "/>
<text text-anchor="middle" x="356.8633" y="-376.6563" font-family="Osaka-Mono" font-size="10.00" fill="#333333">履歴取得成功</text>
</g>
<!-- operating -->
<g id="node15" class="node">
<title>operating</title>
<polygon fill="#f9f9f9" stroke="#bbbbbb" points="326.3633,-296.25 326.3633,-333.1875 387.3633,-333.1875 387.3633,-296.25 326.3633,-296.25"/>
<text text-anchor="middle" x="356.8633" y="-321.1875" font-family="Osaka-Mono" font-size="10.00" fill="#333333">operating</text>
<polyline fill="none" stroke="#bbbbbb" points="326.3633,-314.7188 387.3633,-314.7188 "/>
<text text-anchor="middle" x="356.8633" y="-302.7188" font-family="Osaka-Mono" font-size="10.00" fill="#333333">操作中</text>
</g>
<!-- historyItemsLoadSucceeded&#45;&gt;operating -->
<g id="edge1" class="edge">
<title>historyItemsLoadSucceeded&#45;&gt;operating</title>
<path fill="none" stroke="#aaaaaa" stroke-dasharray="5,2" d="M350.9109,-369.9987C350.1464,-361.9427 349.9315,-352.3346 350.2662,-343.406"/>
<polygon fill="#aaaaaa" stroke="#aaaaaa" points="353.7625,-343.5744 350.9115,-333.3703 346.7769,-343.1251 353.7625,-343.5744"/>
</g>
<!-- historyItemsLoadSucceeded&#45;&gt;operating -->
<g id="edge2" class="edge">
<title>historyItemsLoadSucceeded&#45;&gt;operating</title>
<path fill="none" stroke="#aaaaaa" stroke-dasharray="5,2" d="M362.8157,-369.9987C363.5802,-361.9427 363.7952,-352.3346 363.4605,-343.406"/>
<polygon fill="#aaaaaa" stroke="#aaaaaa" points="366.9498,-343.1251 362.8152,-333.3703 359.9642,-343.5744 366.9498,-343.1251"/>
</g>
<!-- addHistoryItemFailed -->
<g id="node2" class="node">
<title>addHistoryItemFailed</title>
<polygon fill="#f9f9f9" stroke="#40c5ee" points="279.8633,-.5 279.8633,-37.4375 395.8633,-37.4375 395.8633,-.5 279.8633,-.5"/>
<text text-anchor="middle" x="337.8633" y="-25.4375" font-family="Osaka-Mono" font-size="10.00" fill="#333333">addHistoryItemFailed</text>
<polyline fill="none" stroke="#40c5ee" points="279.8633,-18.9688 395.8633,-18.9688 "/>
<text text-anchor="middle" x="337.8633" y="-6.9688" font-family="Osaka-Mono" font-size="10.00" fill="#333333">履歴追加失敗</text>
</g>
<!-- addHistoryItemFailed&#45;&gt;operating -->
<g id="edge3" class="edge">
<title>addHistoryItemFailed&#45;&gt;operating</title>
<path fill="none" stroke="#aaaaaa" stroke-dasharray="5,2" d="M279.8482,-23.6073C172.303,-34.9743 -42.688,-72.165 7.8633,-185.8125 27.8069,-230.6489 46.0767,-237.5965 89.8633,-259.75 163.8962,-297.2063 261.7468,-309.1401 316.0743,-312.9419"/>
<polygon fill="#aaaaaa" stroke="#aaaaaa" points="316.1364,-316.4529 326.3396,-313.5989 316.5836,-309.4672 316.1364,-316.4529"/>
</g>
<!-- addTodoItemSucceeded -->
<g id="node3" class="node">
<title>addTodoItemSucceeded</title>
<polygon fill="#f9f9f9" stroke="#40c5ee" points="16.8633,-148.375 16.8633,-185.3125 132.8633,-185.3125 132.8633,-148.375 16.8633,-148.375"/>
<text text-anchor="middle" x="74.8633" y="-173.3125" font-family="Osaka-Mono" font-size="10.00" fill="#333333">addTodoItemSucceeded</text>
<polyline fill="none" stroke="#40c5ee" points="16.8633,-166.8438 132.8633,-166.8438 "/>
<text text-anchor="middle" x="74.8633" y="-154.8438" font-family="Osaka-Mono" font-size="10.00" fill="#333333">アイテム追加成功</text>
</g>
<!-- addTodoItemSucceeded&#45;&gt;operating -->
<g id="edge4" class="edge">
<title>addTodoItemSucceeded&#45;&gt;operating</title>
<path fill="none" stroke="#aaaaaa" stroke-dasharray="5,2" d="M79.4534,-185.5818C85.6559,-206.8437 98.8116,-240.9937 122.8633,-259.75 152.6652,-282.9905 257.4329,-300.8612 316.1685,-309.3268"/>
<polygon fill="#aaaaaa" stroke="#aaaaaa" points="315.8326,-312.8141 326.2242,-310.7491 316.8129,-305.8831 315.8326,-312.8141"/>
</g>
<!-- removeTodoItemSucceeded -->
<g id="node4" class="node">
<title>removeTodoItemSucceeded</title>
<polygon fill="#f9f9f9" stroke="#40c5ee" points="534.3633,-148.375 534.3633,-185.3125 665.3633,-185.3125 665.3633,-148.375 534.3633,-148.375"/>
<text text-anchor="middle" x="599.8633" y="-173.3125" font-family="Osaka-Mono" font-size="10.00" fill="#333333">removeTodoItemSucceeded</text>
<polyline fill="none" stroke="#40c5ee" points="534.3633,-166.8438 665.3633,-166.8438 "/>
<text text-anchor="middle" x="599.8633" y="-154.8438" font-family="Osaka-Mono" font-size="10.00" fill="#333333">アイテム削除成功</text>
</g>
<!-- addingHistoryItem -->
<g id="node12" class="node">
<title>addingHistoryItem</title>
<polygon fill="#f9f9f9" stroke="#bbbbbb" points="549.3633,-74.4375 549.3633,-111.375 650.3633,-111.375 650.3633,-74.4375 549.3633,-74.4375"/>
<text text-anchor="middle" x="599.8633" y="-99.375" font-family="Osaka-Mono" font-size="10.00" fill="#333333">addingHistoryItem</text>
<polyline fill="none" stroke="#bbbbbb" points="549.3633,-92.9063 650.3633,-92.9063 "/>
<text text-anchor="middle" x="599.8633" y="-80.9063" font-family="Osaka-Mono" font-size="10.00" fill="#333333">履歴追加の通信中</text>
</g>
<!-- removeTodoItemSucceeded&#45;&gt;addingHistoryItem -->
<g id="edge5" class="edge">
<title>removeTodoItemSucceeded&#45;&gt;addingHistoryItem</title>
<path fill="none" stroke="#aaaaaa" stroke-dasharray="5,2" d="M599.8633,-148.1862C599.8633,-140.1302 599.8633,-130.5221 599.8633,-121.5935"/>
<polygon fill="#aaaaaa" stroke="#aaaaaa" points="603.3634,-121.5578 599.8633,-111.5578 596.3634,-121.5579 603.3634,-121.5578"/>
</g>
<!-- addTodoItemFailed -->
<g id="node5" class="node">
<title>addTodoItemFailed</title>
<polygon fill="#f9f9f9" stroke="#40c5ee" points="151.3633,-148.375 151.3633,-185.3125 252.3633,-185.3125 252.3633,-148.375 151.3633,-148.375"/>
<text text-anchor="middle" x="201.8633" y="-173.3125" font-family="Osaka-Mono" font-size="10.00" fill="#333333">addTodoItemFailed</text>
<polyline fill="none" stroke="#40c5ee" points="151.3633,-166.8438 252.3633,-166.8438 "/>
<text text-anchor="middle" x="201.8633" y="-154.8438" font-family="Osaka-Mono" font-size="10.00" fill="#333333">アイテム追加失敗</text>
</g>
<!-- addTodoItemFailed&#45;&gt;operating -->
<g id="edge6" class="edge">
<title>addTodoItemFailed&#45;&gt;operating</title>
<path fill="none" stroke="#aaaaaa" stroke-dasharray="5,2" d="M221.3348,-185.4202C248.7329,-211.5588 298.7735,-259.2991 329.7839,-288.8841"/>
<polygon fill="#aaaaaa" stroke="#aaaaaa" points="327.581,-291.6198 337.2325,-295.9903 332.413,-286.555 327.581,-291.6198"/>
</g>
<!-- loadingTodoItems -->
<g id="node6" class="node">
<title>loadingTodoItems</title>
<polygon fill="#f9f9f9" stroke="#bbbbbb" points="322.8633,-592 322.8633,-628.9375 458.8633,-628.9375 458.8633,-592 322.8633,-592"/>
<text text-anchor="middle" x="390.8633" y="-616.9375" font-family="Osaka-Mono" font-size="10.00" fill="#333333">loadingTodoItems</text>
<polyline fill="none" stroke="#bbbbbb" points="322.8633,-610.4688 458.8633,-610.4688 "/>
<text text-anchor="middle" x="390.8633" y="-598.4688" font-family="Osaka-Mono" font-size="10.00" fill="#333333">アイテム取得の通信を待つ</text>
</g>
<!-- todoItemsLoadSucceeded -->
<g id="node8" class="node">
<title>todoItemsLoadSucceeded</title>
<polygon fill="#f9f9f9" stroke="#40c5ee" points="282.8633,-518.0625 282.8633,-555 408.8633,-555 408.8633,-518.0625 282.8633,-518.0625"/>
<text text-anchor="middle" x="345.8633" y="-543" font-family="Osaka-Mono" font-size="10.00" fill="#333333">todoItemsLoadSucceeded</text>
<polyline fill="none" stroke="#40c5ee" points="282.8633,-536.5313 408.8633,-536.5313 "/>
<text text-anchor="middle" x="345.8633" y="-524.5313" font-family="Osaka-Mono" font-size="10.00" fill="#333333">アイテムの取得成功</text>
</g>
<!-- loadingTodoItems&#45;&gt;todoItemsLoadSucceeded -->
<g id="edge7" class="edge">
<title>loadingTodoItems&#45;&gt;todoItemsLoadSucceeded</title>
<path fill="none" stroke="#99def3" d="M379.5079,-591.8112C374.3384,-583.3174 368.1188,-573.0982 362.4409,-563.7691"/>
<polygon fill="#99def3" stroke="#99def3" points="365.404,-561.9054 357.2151,-555.1828 359.4244,-565.5448 365.404,-561.9054"/>
</g>
<!-- todoItemsLoadFailed -->
<g id="node17" class="node">
<title>todoItemsLoadFailed</title>
<polygon fill="#f9f9f9" stroke="#40c5ee" points="400.3633,-444.125 400.3633,-481.0625 511.3633,-481.0625 511.3633,-444.125 400.3633,-444.125"/>
<text text-anchor="middle" x="455.8633" y="-469.0625" font-family="Osaka-Mono" font-size="10.00" fill="#333333">todoItemsLoadFailed</text>
<polyline fill="none" stroke="#40c5ee" points="400.3633,-462.5938 511.3633,-462.5938 "/>
<text text-anchor="middle" x="455.8633" y="-450.5938" font-family="Osaka-Mono" font-size="10.00" fill="#333333">アイテムの取得失敗</text>
</g>
<!-- loadingTodoItems&#45;&gt;todoItemsLoadFailed -->
<g id="edge8" class="edge">
<title>loadingTodoItems&#45;&gt;todoItemsLoadFailed</title>
<path fill="none" stroke="#99def3" d="M400.4309,-591.7932C405.7447,-581.2261 412.3712,-567.7191 417.8633,-555.5 427.5527,-533.9426 437.6411,-509.1506 444.9861,-490.6018"/>
<polygon fill="#99def3" stroke="#99def3" points="448.2569,-491.8479 448.6623,-481.2609 441.7432,-489.2844 448.2569,-491.8479"/>
</g>
<!-- removingTodoItem -->
<g id="node7" class="node">
<title>removingTodoItem</title>
<polygon fill="#f9f9f9" stroke="#bbbbbb" points="541.8633,-222.3125 541.8633,-259.25 657.8633,-259.25 657.8633,-222.3125 541.8633,-222.3125"/>
<text text-anchor="middle" x="599.8633" y="-247.25" font-family="Osaka-Mono" font-size="10.00" fill="#333333">removingTodoItem</text>
<polyline fill="none" stroke="#bbbbbb" points="541.8633,-240.7813 657.8633,-240.7813 "/>
<text text-anchor="middle" x="599.8633" y="-228.7813" font-family="Osaka-Mono" font-size="10.00" fill="#333333">アイテム削除の通信中</text>
</g>
<!-- removingTodoItem&#45;&gt;removeTodoItemSucceeded -->
<g id="edge9" class="edge">
<title>removingTodoItem&#45;&gt;removeTodoItemSucceeded</title>
<path fill="none" stroke="#99def3" d="M599.8633,-222.1237C599.8633,-214.0677 599.8633,-204.4596 599.8633,-195.531"/>
<polygon fill="#99def3" stroke="#99def3" points="603.3634,-195.4953 599.8633,-185.4953 596.3634,-195.4954 603.3634,-195.4953"/>
</g>
<!-- removeTodoItemFailed -->
<g id="node20" class="node">
<title>removeTodoItemFailed</title>
<polygon fill="#f9f9f9" stroke="#40c5ee" points="683.8633,-148.375 683.8633,-185.3125 799.8633,-185.3125 799.8633,-148.375 683.8633,-148.375"/>
<text text-anchor="middle" x="741.8633" y="-173.3125" font-family="Osaka-Mono" font-size="10.00" fill="#333333">removeTodoItemFailed</text>
<polyline fill="none" stroke="#40c5ee" points="683.8633,-166.8438 799.8633,-166.8438 "/>
<text text-anchor="middle" x="741.8633" y="-154.8438" font-family="Osaka-Mono" font-size="10.00" fill="#333333">アイテム削除失敗</text>
</g>
<!-- removingTodoItem&#45;&gt;removeTodoItemFailed -->
<g id="edge10" class="edge">
<title>removingTodoItem&#45;&gt;removeTodoItemFailed</title>
<path fill="none" stroke="#99def3" d="M635.6959,-222.1237C654.279,-212.4477 677.1622,-200.5328 696.9198,-190.2453"/>
<polygon fill="#99def3" stroke="#99def3" points="698.789,-193.2181 706.0422,-185.4953 695.5561,-187.0093 698.789,-193.2181"/>
</g>
<!-- loadingHistoryItems -->
<g id="node21" class="node">
<title>loadingHistoryItems</title>
<polygon fill="#f9f9f9" stroke="#bbbbbb" points="271.3633,-444.125 271.3633,-481.0625 382.3633,-481.0625 382.3633,-444.125 271.3633,-444.125"/>
<text text-anchor="middle" x="326.8633" y="-469.0625" font-family="Osaka-Mono" font-size="10.00" fill="#333333">loadingHistoryItems</text>
<polyline fill="none" stroke="#bbbbbb" points="271.3633,-462.5938 382.3633,-462.5938 "/>
<text text-anchor="middle" x="326.8633" y="-450.5938" font-family="Osaka-Mono" font-size="10.00" fill="#333333">履歴取得中</text>
</g>
<!-- todoItemsLoadSucceeded&#45;&gt;loadingHistoryItems -->
<g id="edge11" class="edge">
<title>todoItemsLoadSucceeded&#45;&gt;loadingHistoryItems</title>
<path fill="none" stroke="#aaaaaa" stroke-dasharray="5,2" d="M341.0688,-517.8737C338.9761,-509.7301 336.4759,-500.0006 334.1604,-490.9901"/>
<polygon fill="#aaaaaa" stroke="#aaaaaa" points="337.5351,-490.0595 331.6563,-481.2453 330.7554,-491.8018 337.5351,-490.0595"/>
</g>
<!-- firstSetup -->
<g id="node9" class="node">
<title>firstSetup</title>
<polygon fill="#f9f9f9" stroke="#40c5ee" points="342.8633,-665.9375 342.8633,-702.875 438.8633,-702.875 438.8633,-665.9375 342.8633,-665.9375"/>
<text text-anchor="middle" x="390.8633" y="-690.875" font-family="Osaka-Mono" font-size="10.00" fill="#333333">firstSetup</text>
<polyline fill="none" stroke="#40c5ee" points="342.8633,-684.4063 438.8633,-684.4063 "/>
<text text-anchor="middle" x="390.8633" y="-672.4063" font-family="Osaka-Mono" font-size="10.00" fill="#333333">初期セットアップ</text>
</g>
<!-- firstSetup&#45;&gt;loadingTodoItems -->
<g id="edge12" class="edge">
<title>firstSetup&#45;&gt;loadingTodoItems</title>
<path fill="none" stroke="#aaaaaa" stroke-dasharray="5,2" d="M390.8633,-665.7487C390.8633,-657.6927 390.8633,-648.0846 390.8633,-639.156"/>
<polygon fill="#aaaaaa" stroke="#aaaaaa" points="394.3634,-639.1203 390.8633,-629.1203 387.3634,-639.1204 394.3634,-639.1203"/>
</g>
<!-- historyItemsLoadFailed -->
<g id="node10" class="node">
<title>historyItemsLoadFailed</title>
<polygon fill="#f9f9f9" stroke="#40c5ee" points="141.8633,-370.1875 141.8633,-407.125 267.8633,-407.125 267.8633,-370.1875 141.8633,-370.1875"/>
<text text-anchor="middle" x="204.8633" y="-395.125" font-family="Osaka-Mono" font-size="10.00" fill="#333333">historyItemsLoadFailed</text>
<polyline fill="none" stroke="#40c5ee" points="141.8633,-388.6563 267.8633,-388.6563 "/>
<text text-anchor="middle" x="204.8633" y="-376.6563" font-family="Osaka-Mono" font-size="10.00" fill="#333333">履歴取得失敗</text>
</g>
<!-- historyItemsLoadFailed&#45;&gt;operating -->
<g id="edge13" class="edge">
<title>historyItemsLoadFailed&#45;&gt;operating</title>
<path fill="none" stroke="#aaaaaa" stroke-dasharray="5,2" d="M243.2194,-369.9987C265.7901,-359.0196 294.287,-345.1578 317.0981,-334.0618"/>
<polygon fill="#aaaaaa" stroke="#aaaaaa" points="318.7109,-337.1694 326.1725,-329.6477 315.6489,-330.8746 318.7109,-337.1694"/>
</g>
<!-- editTodoItemFailed -->
<g id="node11" class="node">
<title>editTodoItemFailed</title>
<polygon fill="#f9f9f9" stroke="#40c5ee" points="270.8633,-148.375 270.8633,-185.3125 376.8633,-185.3125 376.8633,-148.375 270.8633,-148.375"/>
<text text-anchor="middle" x="323.8633" y="-173.3125" font-family="Osaka-Mono" font-size="10.00" fill="#333333">editTodoItemFailed</text>
<polyline fill="none" stroke="#40c5ee" points="270.8633,-166.8438 376.8633,-166.8438 "/>
<text text-anchor="middle" x="323.8633" y="-154.8438" font-family="Osaka-Mono" font-size="10.00" fill="#333333">アイテム更新失敗</text>
</g>
<!-- editTodoItemFailed&#45;&gt;operating -->
<g id="edge14" class="edge">
<title>editTodoItemFailed&#45;&gt;operating</title>
<path fill="none" stroke="#aaaaaa" stroke-dasharray="5,2" d="M323.9612,-185.6527C324.4591,-204.6369 326.3452,-234.6546 332.8633,-259.75 335.2218,-268.8303 338.8927,-278.3275 342.6602,-286.8234"/>
<polygon fill="#aaaaaa" stroke="#aaaaaa" points="339.4982,-288.3244 346.8901,-295.9147 345.8449,-285.3715 339.4982,-288.3244"/>
</g>
<!-- addingHistoryItem&#45;&gt;addHistoryItemFailed -->
<g id="edge16" class="edge">
<title>addingHistoryItem&#45;&gt;addHistoryItemFailed</title>
<path fill="none" stroke="#99def3" d="M549.3471,-78.6504C508.4794,-67.1173 450.5495,-50.7693 405.6504,-38.0985"/>
<polygon fill="#99def3" stroke="#99def3" points="406.564,-34.7197 395.9893,-35.3721 404.6628,-41.4566 406.564,-34.7197"/>
</g>
<!-- addHistoryItemSucceeded -->
<g id="node19" class="node">
<title>addHistoryItemSucceeded</title>
<polygon fill="#f9f9f9" stroke="#40c5ee" points="648.3633,-.5 648.3633,-37.4375 779.3633,-37.4375 779.3633,-.5 648.3633,-.5"/>
<text text-anchor="middle" x="713.8633" y="-25.4375" font-family="Osaka-Mono" font-size="10.00" fill="#333333">addHistoryItemSucceeded</text>
<polyline fill="none" stroke="#40c5ee" points="648.3633,-18.9688 779.3633,-18.9688 "/>
<text text-anchor="middle" x="713.8633" y="-6.9688" font-family="Osaka-Mono" font-size="10.00" fill="#333333">履歴追加成功</text>
</g>
<!-- addingHistoryItem&#45;&gt;addHistoryItemSucceeded -->
<g id="edge15" class="edge">
<title>addingHistoryItem&#45;&gt;addHistoryItemSucceeded</title>
<path fill="none" stroke="#99def3" d="M628.6304,-74.2487C643.2117,-64.7916 661.0907,-53.1958 676.7015,-43.071"/>
<polygon fill="#99def3" stroke="#99def3" points="678.6201,-45.9983 685.1055,-37.6203 674.8111,-40.1254 678.6201,-45.9983"/>
</g>
<!-- editingTodoItem -->
<g id="node13" class="node">
<title>editingTodoItem</title>
<polygon fill="#f9f9f9" stroke="#bbbbbb" points="341.8633,-222.3125 341.8633,-259.25 457.8633,-259.25 457.8633,-222.3125 341.8633,-222.3125"/>
<text text-anchor="middle" x="399.8633" y="-247.25" font-family="Osaka-Mono" font-size="10.00" fill="#333333">editingTodoItem</text>
<polyline fill="none" stroke="#bbbbbb" points="341.8633,-240.7813 457.8633,-240.7813 "/>
<text text-anchor="middle" x="399.8633" y="-228.7813" font-family="Osaka-Mono" font-size="10.00" fill="#333333">アイテム更新の通信中</text>
</g>
<!-- editingTodoItem&#45;&gt;editTodoItemFailed -->
<g id="edge18" class="edge">
<title>editingTodoItem&#45;&gt;editTodoItemFailed</title>
<path fill="none" stroke="#99def3" d="M380.6853,-222.1237C371.5045,-213.192 360.3627,-202.3526 350.3858,-192.6464"/>
<polygon fill="#99def3" stroke="#99def3" points="352.6435,-189.9598 343.0352,-185.4953 347.7623,-194.9772 352.6435,-189.9598"/>
</g>
<!-- editTodoItemSucceeded -->
<g id="node16" class="node">
<title>editTodoItemSucceeded</title>
<polygon fill="#f9f9f9" stroke="#40c5ee" points="395.3633,-148.375 395.3633,-185.3125 516.3633,-185.3125 516.3633,-148.375 395.3633,-148.375"/>
<text text-anchor="middle" x="455.8633" y="-173.3125" font-family="Osaka-Mono" font-size="10.00" fill="#333333">editTodoItemSucceeded</text>
<polyline fill="none" stroke="#40c5ee" points="395.3633,-166.8438 516.3633,-166.8438 "/>
<text text-anchor="middle" x="455.8633" y="-154.8438" font-family="Osaka-Mono" font-size="10.00" fill="#333333">アイテム更新成功</text>
</g>
<!-- editingTodoItem&#45;&gt;editTodoItemSucceeded -->
<g id="edge17" class="edge">
<title>editingTodoItem&#45;&gt;editTodoItemSucceeded</title>
<path fill="none" stroke="#99def3" d="M413.9945,-222.1237C420.5603,-213.4547 428.4874,-202.9885 435.6697,-193.5057"/>
<polygon fill="#99def3" stroke="#99def3" points="438.4891,-195.5802 441.7367,-185.4953 432.9089,-191.3538 438.4891,-195.5802"/>
</g>
<!-- begin -->
<g id="node14" class="node">
<title>begin</title>
<polygon fill="#f9f9f9" stroke="#00d54b" points="363.8633,-739.875 363.8633,-775.875 417.8633,-775.875 417.8633,-739.875 363.8633,-739.875"/>
<text text-anchor="middle" x="390.8633" y="-755.375" font-family="Osaka-Mono" font-size="10.00" fill="#333333">begin</text>
</g>
<!-- begin&#45;&gt;firstSetup -->
<g id="edge19" class="edge">
<title>begin&#45;&gt;firstSetup</title>
<path fill="none" stroke="#99def3" d="M390.8633,-739.7142C390.8633,-731.7123 390.8633,-722.1148 390.8633,-713.1778"/>
<polygon fill="#99def3" stroke="#99def3" points="394.3634,-713.1252 390.8633,-703.1252 387.3634,-713.1252 394.3634,-713.1252"/>
</g>
<!-- operating&#45;&gt;removingTodoItem -->
<g id="edge21" class="edge">
<title>operating&#45;&gt;removingTodoItem</title>
<path fill="none" stroke="#aaaaaa" stroke-dasharray="5,2" d="M387.6395,-305.3545C423.7222,-294.3756 484.607,-275.8503 531.9332,-261.4503"/>
<polygon fill="#aaaaaa" stroke="#aaaaaa" points="532.961,-264.7961 541.5091,-258.5367 530.9233,-258.0992 532.961,-264.7961"/>
</g>
<!-- operating&#45;&gt;editingTodoItem -->
<g id="edge22" class="edge">
<title>operating&#45;&gt;editingTodoItem</title>
<path fill="none" stroke="#aaaaaa" stroke-dasharray="5,2" d="M367.7141,-296.0612C372.6029,-287.6549 378.4746,-277.5587 383.8546,-268.3079"/>
<polygon fill="#aaaaaa" stroke="#aaaaaa" points="387.0142,-269.8368 389.0161,-259.4328 380.9631,-266.3177 387.0142,-269.8368"/>
</g>
<!-- addingTodoItem -->
<g id="node18" class="node">
<title>addingTodoItem</title>
<polygon fill="#f9f9f9" stroke="#bbbbbb" points="131.8633,-222.3125 131.8633,-259.25 247.8633,-259.25 247.8633,-222.3125 131.8633,-222.3125"/>
<text text-anchor="middle" x="189.8633" y="-247.25" font-family="Osaka-Mono" font-size="10.00" fill="#333333">addingTodoItem</text>
<polyline fill="none" stroke="#bbbbbb" points="131.8633,-240.7813 247.8633,-240.7813 "/>
<text text-anchor="middle" x="189.8633" y="-228.7813" font-family="Osaka-Mono" font-size="10.00" fill="#333333">アイテム追加の通信中</text>
</g>
<!-- operating&#45;&gt;addingTodoItem -->
<g id="edge20" class="edge">
<title>operating&#45;&gt;addingTodoItem</title>
<path fill="none" stroke="#aaaaaa" stroke-dasharray="5,2" d="M326.233,-301.1575C302.3759,-290.595 268.7371,-275.7018 240.8392,-263.3503"/>
<polygon fill="#aaaaaa" stroke="#aaaaaa" points="242.1816,-260.117 231.6208,-259.2689 239.3477,-266.5177 242.1816,-260.117"/>
</g>
<!-- editTodoItemSucceeded&#45;&gt;operating -->
<g id="edge23" class="edge">
<title>editTodoItemSucceeded&#45;&gt;operating</title>
<path fill="none" stroke="#aaaaaa" stroke-dasharray="5,2" d="M464.5311,-185.4376C472.4162,-205.3362 480.8699,-237.0926 466.8633,-259.75 451.7676,-284.1692 422.1794,-298.1015 397.4894,-305.8263"/>
<polygon fill="#aaaaaa" stroke="#aaaaaa" points="396.2509,-302.5408 387.6138,-308.6769 398.1922,-309.2663 396.2509,-302.5408"/>
</g>
<!-- todoItemsLoadFailed&#45;&gt;operating -->
<g id="edge24" class="edge">
<title>todoItemsLoadFailed&#45;&gt;operating</title>
<path fill="none" stroke="#aaaaaa" stroke-dasharray="5,2" d="M455.7815,-443.9475C454.8506,-424.004 450.8605,-392.2096 435.8633,-369.6875 426.0469,-354.9456 410.8153,-342.9875 396.336,-334.0354"/>
<polygon fill="#aaaaaa" stroke="#aaaaaa" points="397.872,-330.8792 387.473,-328.8519 394.3381,-336.9217 397.872,-330.8792"/>
</g>
<!-- addingTodoItem&#45;&gt;addTodoItemSucceeded -->
<g id="edge25" class="edge">
<title>addingTodoItem&#45;&gt;addTodoItemSucceeded</title>
<path fill="none" stroke="#99def3" d="M160.844,-222.1237C146.1348,-212.6666 128.0989,-201.0708 112.3511,-190.946"/>
<polygon fill="#99def3" stroke="#99def3" points="114.1777,-187.9594 103.8734,-185.4953 110.3921,-193.8474 114.1777,-187.9594"/>
</g>
<!-- addingTodoItem&#45;&gt;addTodoItemFailed -->
<g id="edge26" class="edge">
<title>addingTodoItem&#45;&gt;addTodoItemFailed</title>
<path fill="none" stroke="#99def3" d="M192.8914,-222.1237C194.1989,-214.0677 195.7583,-204.4596 197.2074,-195.531"/>
<polygon fill="#99def3" stroke="#99def3" points="200.6889,-195.9269 198.8362,-185.4953 193.7793,-194.8054 200.6889,-195.9269"/>
</g>
<!-- addHistoryItemSucceeded&#45;&gt;operating -->
<g id="edge27" class="edge">
<title>addHistoryItemSucceeded&#45;&gt;operating</title>
<path fill="none" stroke="#aaaaaa" stroke-dasharray="5,2" d="M738.071,-37.5158C774.867,-68.0853 837.7027,-131.1186 808.8633,-185.8125 781.7313,-237.2684 754.8978,-238.2064 700.8633,-259.75 646.2243,-281.5347 476.0123,-301.9498 397.4045,-310.4994"/>
<polygon fill="#aaaaaa" stroke="#aaaaaa" points="396.9568,-307.0273 387.3892,-311.5783 397.7066,-313.9871 396.9568,-307.0273"/>
</g>
<!-- removeTodoItemFailed&#45;&gt;operating -->
<g id="edge28" class="edge">
<title>removeTodoItemFailed&#45;&gt;operating</title>
<path fill="none" stroke="#aaaaaa" stroke-dasharray="5,2" d="M732.2156,-185.5674C720.0502,-207.1503 697.0263,-241.9322 666.8633,-259.75 621.8959,-286.3131 471.3171,-303.8492 397.8607,-311.0332"/>
<polygon fill="#aaaaaa" stroke="#aaaaaa" points="397.224,-307.5782 387.6042,-312.0179 397.893,-314.5462 397.224,-307.5782"/>
</g>
<!-- loadingHistoryItems&#45;&gt;historyItemsLoadSucceeded -->
<g id="edge29" class="edge">
<title>loadingHistoryItems&#45;&gt;historyItemsLoadSucceeded</title>
<path fill="none" stroke="#99def3" d="M334.4336,-443.9362C337.7734,-435.7051 341.7706,-425.8537 345.4594,-416.7622"/>
<polygon fill="#99def3" stroke="#99def3" points="348.7789,-417.8901 349.2955,-407.3078 342.2924,-415.2582 348.7789,-417.8901"/>
</g>
<!-- loadingHistoryItems&#45;&gt;historyItemsLoadFailed -->
<g id="edge30" class="edge">
<title>loadingHistoryItems&#45;&gt;historyItemsLoadFailed</title>
<path fill="none" stroke="#99def3" d="M296.0776,-443.9362C280.473,-434.4791 261.3393,-422.8833 244.633,-412.7585"/>
<polygon fill="#99def3" stroke="#99def3" points="246.0053,-409.4976 235.6392,-407.3078 242.3773,-415.484 246.0053,-409.4976"/>
</g>
</g>
</svg>
